<svg xmlns="http://www.w3.org/2000/svg" viewBox="0 0 1920 1080"><g transform="
          rotate(0 960 540) 
          translate(-0 -0)
          scale(1)
        "><rect width="1920" height="1080" fill="rgb(44, 0, 255)"></rect><g transform="translate(0, 0)"><path fill="rgb(114, 85, 255)" fill-opacity="1" d="M0,529.415L29.091,525.113C58.182,520.81,116.364,512.206,174.545,510.872C232.727,509.538,290.909,515.475,349.091,516.142C407.273,516.81,465.455,512.208,523.636,454.775C581.818,397.341,640,287.075,698.182,277.762C756.364,268.45,814.545,360.091,872.727,332.004C930.909,303.917,989.091,156.103,1047.273,147.721C1105.455,139.338,1163.636,270.387,1221.818,303.028C1280,335.67,1338.182,269.905,1396.364,209.033C1454.545,148.161,1512.727,92.183,1570.909,121.078C1629.091,149.974,1687.273,263.743,1745.455,284.257C1803.636,304.771,1861.818,232.03,1890.909,195.659L1920,159.289L1920,1080L1890.909,1080C1861.818,1080,1803.636,1080,1745.455,1080C1687.273,1080,1629.091,1080,1570.909,1080C1512.727,1080,1454.545,1080,1396.364,1080C1338.182,1080,1280,1080,1221.818,1080C1163.636,1080,1105.455,1080,1047.273,1080C989.091,1080,930.909,1080,872.727,1080C814.545,1080,756.364,1080,698.182,1080C640,1080,581.818,1080,523.636,1080C465.455,1080,407.273,1080,349.091,1080C290.909,1080,232.727,1080,174.545,1080C116.364,1080,58.182,1080,29.091,1080L0,1080Z"></path></g><g transform="translate(0, 540)"><path fill="rgb(185, 170, 255)" fill-opacity="1" d="M0,159.059L29.091,211.873C58.182,264.687,116.364,370.316,174.545,427.046C232.727,483.776,290.909,491.608,349.091,427.012C407.273,362.417,465.455,225.394,523.636,168.935C581.818,112.475,640,136.578,698.182,189.409C756.364,242.24,814.545,323.799,872.727,381.495C930.909,439.191,989.091,473.025,1047.273,450.772C1105.455,428.518,1163.636,350.178,1221.818,270.469C1280,190.761,1338.182,109.684,1396.364,65.047C1454.545,20.41,1512.727,12.212,1570.909,61.618C1629.091,111.025,1687.273,218.037,1745.455,251.673C1803.636,285.309,1861.818,245.57,1890.909,225.701L1920,205.831L1920,540L1890.909,540C1861.818,540,1803.636,540,1745.455,540C1687.273,540,1629.091,540,1570.909,540C1512.727,540,1454.545,540,1396.364,540C1338.182,540,1280,540,1221.818,540C1163.636,540,1105.455,540,1047.273,540C989.091,540,930.909,540,872.727,540C814.545,540,756.364,540,698.182,540C640,540,581.818,540,523.636,540C465.455,540,407.273,540,349.091,540C290.909,540,232.727,540,174.545,540C116.364,540,58.182,540,29.091,540L0,540Z"></path></g></g></svg>